<svg width="70" height="50" viewBox="0 0 70 50" fill="none" xmlns="http://www.w3.org/2000/svg">
<path d="M68.8694 28.3197C67.1556 25.4294 64.7155 23.008 61.8124 21.3177C61.0065 20.8482 60.1685 20.4407 59.3076 20.0925C59.4529 19.9617 59.5955 19.8276 59.7349 19.6877C64.049 15.3741 64.049 8.35502 59.7349 4.04144C55.4213 -0.272674 48.4022 -0.272674 44.0886 4.04144C42.0832 6.04629 41.0114 8.63647 40.8709 11.2672C39.1277 10.1714 37.1095 9.58175 35 9.58175C32.8926 9.58175 30.8771 10.1703 29.135 11.2635C28.9897 8.53447 27.8591 5.98862 25.9114 4.04144C23.8217 1.95168 21.0435 0.800781 18.088 0.800781C15.1331 0.800781 12.3544 1.95168 10.2651 4.04144C8.17538 6.13121 7.02448 8.90938 7.02448 11.8649C7.02448 14.8198 8.17538 17.5985 10.2651 19.6877C10.404 19.8271 10.5471 19.9617 10.6924 20.0925C9.83149 20.4407 8.99355 20.8482 8.18766 21.3177C5.28452 23.008 2.84441 25.4294 1.13062 28.3197C-0.355658 30.8271 -0.378088 33.8429 1.07134 36.3866C2.5352 38.9565 5.17184 40.4909 8.12357 40.4909H16.943C16.8031 42.0813 17.1486 43.7027 17.9833 45.1676C19.4472 47.7375 22.0838 49.2718 25.0356 49.2718H44.965C47.9167 49.2718 50.5528 47.7375 52.0172 45.1676C52.8514 43.7027 53.197 42.0813 53.057 40.4909H61.8765C64.8282 40.4909 67.4648 38.9565 68.9287 36.3866C70.3781 33.8429 70.3557 30.8271 68.8694 28.3197ZM65.2132 34.2696C64.5195 35.4878 63.272 36.2147 61.8765 36.2147H51.3966C49.7288 33.7153 47.5012 31.6132 44.9004 30.0986C44.0945 29.6297 43.2571 29.2217 42.3962 28.8735C42.5409 28.7427 42.684 28.6086 42.8234 28.4692C44.0005 27.2922 44.8795 25.8961 45.4232 24.373C47.4302 23.4389 49.6412 22.9284 51.912 22.9284C57.3338 22.9284 62.4223 25.8299 65.1908 30.5003C65.884 31.6688 65.892 33.0781 65.2132 34.2696ZM48.2788 39.2812C48.972 40.4503 48.9806 41.8597 48.3013 43.0511C47.6075 44.2688 46.3605 44.9962 44.9645 44.9962H25.0356C23.6395 44.9962 22.392 44.2688 21.6982 43.0511C21.0195 41.8597 21.028 40.4503 21.7207 39.2812C24.4898 34.6109 29.5777 31.7094 35 31.7094C40.4223 31.7094 45.5103 34.6109 48.2788 39.2812ZM4.78678 34.2702C4.10746 33.0781 4.11601 31.6688 4.80921 30.5003C7.57777 25.8299 12.6657 22.9284 18.088 22.9284C20.3583 22.9284 22.5693 23.4389 24.5768 24.373C25.1205 25.8956 25.9995 27.2916 27.1766 28.4692C27.316 28.6081 27.4586 28.7427 27.6039 28.8735C26.743 29.2217 25.9056 29.6297 25.0991 30.0986C22.4988 31.6132 20.2712 33.7153 18.6028 36.2147H8.12357C6.72808 36.2147 5.48052 35.4878 4.78678 34.2702ZM13.2884 16.6644C12.0067 15.3822 11.3007 13.6774 11.3007 11.8649C11.3007 10.0517 12.0067 8.34701 13.2884 7.06474C14.5707 5.783 16.2749 5.07698 18.088 5.07698C19.9011 5.07698 21.6059 5.783 22.8881 7.06474C24.1699 8.34701 24.8759 10.0517 24.8759 11.8649C24.8759 13.6774 24.1699 15.3822 22.8881 16.6644C21.6059 17.9462 19.9011 18.6527 18.088 18.6527C16.2749 18.6527 14.5707 17.9462 13.2884 16.6644ZM51.9115 5.08018C53.6498 5.08018 55.3882 5.74135 56.7116 7.06474C59.3578 9.71153 59.3578 14.0176 56.7116 16.6644C54.0648 19.3112 49.7587 19.3107 47.1119 16.6644C44.4657 14.0176 44.4657 9.71153 47.1119 7.06474C48.4353 5.74188 50.1737 5.08018 51.9115 5.08018ZM39.7996 15.8462C41.0819 17.128 41.7879 18.8327 41.7879 20.6458C41.7879 22.4589 41.0819 24.1631 39.7996 25.4454C38.5179 26.7277 36.8131 27.4337 35 27.4337C33.1869 27.4337 31.4822 26.7277 30.2004 25.4454C28.9182 24.1631 28.2121 22.4589 28.2121 20.6458C28.2121 18.8327 28.9182 17.128 30.2004 15.8462C31.4822 14.564 33.1869 13.858 35 13.858C36.8131 13.858 38.5179 14.564 39.7996 15.8462Z" fill="white"/>
</svg>
