<svg width="70" height="70" viewBox="0 0 70 70" fill="none" xmlns="http://www.w3.org/2000/svg">
<path d="M22.832 30.8984H10.2539C9.12133 30.8984 8.20312 31.8166 8.20312 32.9492C8.20312 34.0818 9.12133 35 10.2539 35H22.832C23.9646 35 24.8828 34.0818 24.8828 32.9492C24.8828 31.8166 23.9646 30.8984 22.832 30.8984Z" fill="white"/>
<path d="M22.832 39.1016H10.2539C9.12133 39.1016 8.20312 40.0198 8.20312 41.1523C8.20312 42.2849 9.12133 43.2031 10.2539 43.2031H22.832C23.9646 43.2031 24.8828 42.2849 24.8828 41.1523C24.8828 40.0198 23.9646 39.1016 22.832 39.1016Z" fill="white"/>
<path d="M61.7969 30.9088C61.7969 30.1767 61.7969 9.53354 61.7969 8.33984C61.7969 4.94744 59.0369 2.1875 55.6445 2.1875H6.15234C2.75994 2.1875 0 4.94744 0 8.33984C0 9.80752 0 43.6598 0 45.2539C0 48.6463 2.75994 51.4062 6.15234 51.4062H29.3967C31.302 60.7556 39.5884 67.8125 49.4922 67.8125C60.8002 67.8125 70 58.6127 70 47.3047C70 40.6096 66.7748 34.6541 61.7969 30.9088ZM4.10156 8.33984C4.10156 7.20904 5.02154 6.28906 6.15234 6.28906H55.6445C56.7753 6.28906 57.6953 7.20904 57.6953 8.33984V10.3906H4.10156V8.33984ZM4.10156 14.4922H57.6953V18.5938H4.10156V14.4922ZM28.9844 47.3047H6.15234C5.02154 47.3047 4.10156 46.3847 4.10156 45.2539V22.6953H57.6953V28.5111C55.1819 27.4096 52.4074 26.7969 49.4922 26.7969C38.1842 26.7969 28.9844 35.9967 28.9844 47.3047ZM49.4922 63.7109C40.4458 63.7109 33.0859 56.3511 33.0859 47.3047C33.0859 38.2583 40.4458 30.8984 49.4922 30.8984C58.5386 30.8984 65.8984 38.2583 65.8984 47.3047C65.8984 56.3511 58.5386 63.7109 49.4922 63.7109Z" fill="white"/>
<path d="M59.1454 41.753C58.3446 40.9521 57.046 40.9521 56.2453 41.7531L47.4414 50.5569L42.7391 45.8547C41.9383 45.0538 40.6398 45.0538 39.8389 45.8547C39.038 46.6556 39.038 47.954 39.8389 48.7549L45.9912 54.9073C46.3917 55.3077 46.9165 55.5079 47.4414 55.5079C47.9663 55.5079 48.4911 55.3077 48.8914 54.9071L59.1454 44.6532C59.9463 43.8523 59.9463 42.5539 59.1454 41.753Z" fill="white"/>
</svg>
