<svg width="70" height="70" viewBox="0 0 70 70" fill="none" xmlns="http://www.w3.org/2000/svg">
<mask id="mask0_1_563" style="mask-type:luminance" maskUnits="userSpaceOnUse" x="0" y="0" width="70" height="70">
<path d="M0 7.62939e-06H70V70H0V7.62939e-06Z" fill="white"/>
</mask>
<g mask="url(#mask0_1_563)">
<path d="M22.8307 51.6605C20.4531 51.6605 18.5254 49.7328 18.5254 47.3566C18.5254 45.1418 20.1988 43.318 22.3494 43.0773C22.508 43.0609 22.668 43.0514 22.8307 43.0514C25.2082 43.0514 27.1346 44.9791 27.1346 47.3566C27.1346 49.4279 25.6717 51.1574 23.7207 51.5676C23.4336 51.6291 23.1355 51.6605 22.8307 51.6605ZM47.1693 18.8084C49.5469 18.8084 51.4746 20.7361 51.4746 23.1137C51.4746 25.3135 49.8244 27.1264 47.6957 27.3861C47.5234 27.4066 47.3471 27.4176 47.1693 27.4176C44.7918 27.4176 42.8654 25.4912 42.8654 23.1137C42.8654 21.0055 44.3789 19.2514 46.3805 18.8809C46.6361 18.833 46.9 18.8084 47.1693 18.8084ZM65.7385 23.1137C60.9711 10.7898 49.0068 2.05079 35 2.05079C27.7225 2.05079 20.9959 4.41055 15.5436 8.40684C15.8197 8.97559 15.9756 9.61407 15.9756 10.2881C15.9756 12.6656 14.0479 14.5934 11.6703 14.5934C10.9074 14.5934 10.191 14.3951 9.57031 14.0479C7.3459 16.744 5.54258 19.7982 4.26152 23.1137C2.83281 26.801 2.05078 30.8096 2.05078 35C2.05078 39.3695 2.90117 43.5408 4.44609 47.3566C9.33379 59.4316 21.1723 67.9492 35 67.9492C42.2775 67.9492 49.0041 65.5895 54.4564 61.5932C54.1803 61.0244 54.0244 60.3859 54.0244 59.7119C54.0244 57.3344 55.9521 55.4066 58.3297 55.4066C59.0926 55.4066 59.809 55.6049 60.4297 55.9521C62.5488 53.3846 64.2851 50.4902 65.5539 47.3566C67.0988 43.5408 67.9492 39.3695 67.9492 35C67.9492 30.8096 67.1672 26.801 65.7385 23.1137Z" stroke="white" stroke-width="4" stroke-miterlimit="10" stroke-linejoin="round"/>
<path d="M48.0456 35C48.0456 39.3695 47.7093 43.5408 47.0968 47.3566C45.1622 59.4316 40.4755 67.9492 34.9999 67.9492C30.1861 67.9492 25.982 61.3648 23.7206 51.5676C25.6716 51.1574 27.1345 49.4279 27.1345 47.3566C27.1345 44.9791 25.2081 43.0514 22.8306 43.0514C22.6679 43.0514 22.5079 43.0609 22.3493 43.0773C22.0909 40.4934 21.9542 37.7863 21.9542 35C21.9542 30.8096 22.2646 26.801 22.8292 23.1137C24.7173 10.7898 29.4546 2.05079 34.9999 2.05079C39.8863 2.05079 44.1464 8.83614 46.3804 18.8809C44.3788 19.2514 42.8654 21.0055 42.8654 23.1137C42.8654 25.4912 44.7917 27.4176 47.1693 27.4176C47.347 27.4176 47.5234 27.4066 47.6956 27.3861C47.9239 29.8293 48.0456 32.3791 48.0456 35Z" stroke="white" stroke-width="4" stroke-miterlimit="10" stroke-linejoin="round"/>
<path d="M51.4747 23.1137C51.4747 25.3135 49.8245 27.1264 47.6958 27.3862C47.5235 27.4067 47.3471 27.4176 47.1694 27.4176C44.7918 27.4176 42.8655 25.4912 42.8655 23.1137C42.8655 21.0055 44.379 19.2514 46.3805 18.8809C46.6362 18.833 46.9 18.8084 47.1694 18.8084C49.5469 18.8084 51.4747 20.7362 51.4747 23.1137Z" stroke="white" stroke-width="4" stroke-miterlimit="10" stroke-linejoin="round"/>
<path d="M66.1787 23.1136H65.7385H51.4746" stroke="white" stroke-width="4" stroke-miterlimit="10" stroke-linejoin="round"/>
<path d="M42.8654 23.1136H22.8293H4.26152H3.82129" stroke="white" stroke-width="4" stroke-miterlimit="10" stroke-linejoin="round"/>
<path d="M66.1787 47.3567H65.5539H47.0968H27.1345" stroke="white" stroke-width="4" stroke-miterlimit="10" stroke-linejoin="round"/>
<path d="M18.5254 47.3567H4.44609H3.82129" stroke="white" stroke-width="4" stroke-miterlimit="10" stroke-linejoin="round"/>
<path d="M27.1346 47.3566C27.1346 49.4279 25.6717 51.1574 23.7207 51.5676C23.4336 51.6291 23.1355 51.6605 22.8307 51.6605C20.4531 51.6605 18.5254 49.7328 18.5254 47.3566C18.5254 45.1418 20.1988 43.3179 22.3494 43.0773C22.508 43.0609 22.668 43.0513 22.8307 43.0513C25.2082 43.0513 27.1346 44.9791 27.1346 47.3566Z" stroke="white" stroke-width="4" stroke-miterlimit="10" stroke-linejoin="round"/>
<path d="M15.9755 10.2881C15.9755 12.6656 14.0478 14.5934 11.6703 14.5934C10.9074 14.5934 10.191 14.3951 9.57026 14.0479C8.25503 13.311 7.36499 11.9028 7.36499 10.2881C7.36499 7.91057 9.29272 5.98284 11.6703 5.98284C13.3738 5.98284 14.8449 6.97131 15.5435 8.40686C15.8197 8.97561 15.9755 9.61409 15.9755 10.2881Z" stroke="white" stroke-width="4" stroke-miterlimit="10" stroke-linejoin="round"/>
<path d="M62.635 59.7119C62.635 62.0895 60.7072 64.0172 58.3297 64.0172C56.6262 64.0172 55.1551 63.0287 54.4564 61.5932C54.1803 61.0244 54.0244 60.386 54.0244 59.7119C54.0244 57.3344 55.9521 55.4067 58.3297 55.4067C59.0926 55.4067 59.809 55.6049 60.4297 55.9522C61.7449 56.6891 62.635 58.0973 62.635 59.7119Z" stroke="white" stroke-width="4" stroke-miterlimit="10" stroke-linejoin="round"/>
</g>
</svg>
