<svg width="26" height="20" viewBox="0 0 26 20" fill="none" xmlns="http://www.w3.org/2000/svg">
<path fill-rule="evenodd" clip-rule="evenodd" d="M18.4484 11.3183C20.0467 12.4033 21.1667 13.8733 21.1667 15.8333V19.3333H24.6667C25.3084 19.3333 25.8334 18.8083 25.8334 18.1666V15.8333C25.8334 13.29 21.6684 11.785 18.4484 11.3183Z" fill="white"/>
<path d="M9.49998 9.99996C12.0773 9.99996 14.1666 7.91062 14.1666 5.33329C14.1666 2.75596 12.0773 0.666626 9.49998 0.666626C6.92265 0.666626 4.83331 2.75596 4.83331 5.33329C4.83331 7.91062 6.92265 9.99996 9.49998 9.99996Z" fill="white"/>
<path fill-rule="evenodd" clip-rule="evenodd" d="M16.5 9.99996C19.0784 9.99996 21.1667 7.91163 21.1667 5.33329C21.1667 2.75496 19.0784 0.666626 16.5 0.666626C15.9517 0.666626 15.4384 0.783292 14.9484 0.946626C15.9167 2.14829 16.5 3.67663 16.5 5.33329C16.5 6.98996 15.9167 8.51829 14.9484 9.71996C15.4384 9.88329 15.9517 9.99996 16.5 9.99996Z" fill="white"/>
<path fill-rule="evenodd" clip-rule="evenodd" d="M9.50002 11.1666C6.38502 11.1666 0.166687 12.73 0.166687 15.8333V18.1666C0.166687 18.8083 0.691687 19.3333 1.33335 19.3333H17.6667C18.3084 19.3333 18.8334 18.8083 18.8334 18.1666V15.8333C18.8334 12.73 12.615 11.1666 9.50002 11.1666Z" fill="white"/>
</svg>
