<svg width="68" height="48" viewBox="0 0 68 48" fill="none" xmlns="http://www.w3.org/2000/svg">
<path d="M67.25 2.625V16.875C67.25 17.5049 66.9998 18.109 66.5544 18.5544C66.109 18.9998 65.5049 19.25 64.875 19.25C64.2451 19.25 63.641 18.9998 63.1956 18.5544C62.7502 18.109 62.5 17.5049 62.5 16.875V8.35825L42.8041 28.0565C42.3584 28.5011 41.7545 28.7505 41.125 28.75H23.1082L4.80412 47.0541C4.35619 47.4868 3.75625 47.7261 3.13354 47.7207C2.51082 47.7153 1.91514 47.4655 1.4748 47.0252C1.03445 46.5849 0.784676 45.9892 0.779265 45.3665C0.773853 44.7437 1.01324 44.1438 1.44587 43.6959L20.4459 24.6959C20.8912 24.2504 21.4952 24.0001 22.125 24H40.1394L59.1394 5H50.625C49.9951 5 49.391 4.74978 48.9456 4.30438C48.5002 3.85898 48.25 3.25489 48.25 2.625C48.25 1.99511 48.5002 1.39102 48.9456 0.945622C49.391 0.500223 49.9951 0.25 50.625 0.25H64.875C65.5049 0.25 66.109 0.500223 66.5544 0.945622C66.9998 1.39102 67.25 1.99511 67.25 2.625Z" fill="url(#paint0_linear_4_682)"/>
<defs>
<linearGradient id="paint0_linear_4_682" x1="-1.87967" y1="53.7298" x2="72.3124" y2="12.469" gradientUnits="userSpaceOnUse">
<stop stop-color="white"/>
<stop offset="1" stop-color="white" stop-opacity="0.37"/>
</linearGradient>
</defs>
</svg>
