<svg width="361" height="151" viewBox="0 0 361 151" fill="none" xmlns="http://www.w3.org/2000/svg">
<line x1="188.355" y1="79.3732" x2="244.015" y2="97.6875" stroke="#FF742E" stroke-width="3"/>
<line x1="110.166" y1="102.012" x2="181.268" y2="76.1566" stroke="#FF742E" stroke-width="3"/>
<line x1="181.358" y1="75.0491" x2="181.492" y2="12.9244" stroke="#FF742E" stroke-width="3"/>
<g filter="url(#filter0_d_40_8)">
<path d="M203.885 16.7631V6.58124H207.962C208.711 6.58124 209.335 6.69228 209.836 6.91434C210.336 7.1364 210.713 7.44464 210.964 7.83906C211.216 8.23015 211.342 8.68091 211.342 9.19133C211.342 9.58906 211.263 9.93872 211.104 10.2403C210.945 10.5386 210.726 10.7839 210.447 10.9761C210.172 11.165 209.857 11.2993 209.503 11.3788V11.4783C209.891 11.4948 210.254 11.6042 210.592 11.8064C210.933 12.0086 211.21 12.2919 211.422 12.6565C211.634 13.0178 211.74 13.4487 211.74 13.9491C211.74 14.4894 211.606 14.9716 211.337 15.3959C211.072 15.8168 210.679 16.1499 210.159 16.3952C209.639 16.6404 208.997 16.7631 208.235 16.7631H203.885ZM206.038 15.0031H207.793C208.393 15.0031 208.83 14.8888 209.105 14.6601C209.38 14.4281 209.518 14.1198 209.518 13.7354C209.518 13.4536 209.45 13.2051 209.314 12.9896C209.178 12.7742 208.984 12.6052 208.732 12.4825C208.484 12.3599 208.187 12.2986 207.842 12.2986H206.038V15.0031ZM206.038 10.8419H207.634C207.929 10.8419 208.19 10.7905 208.419 10.6878C208.651 10.5817 208.833 10.4326 208.966 10.2403C209.102 10.0481 209.17 9.81775 209.17 9.54928C209.17 9.18139 209.039 8.88475 208.777 8.65937C208.518 8.43399 208.151 8.3213 207.673 8.3213H206.038V10.8419ZM214.558 10.3447H216.984C217.793 10.3447 218.489 10.4757 219.072 10.7375C219.659 10.996 220.111 11.3623 220.429 11.8362C220.747 12.3102 220.905 12.8686 220.901 13.5116C220.905 14.1513 220.747 14.7164 220.429 15.207C220.111 15.6942 219.659 16.0753 219.072 16.3504C218.489 16.6255 217.793 16.7631 216.984 16.7631H213.181V6.58124H215.328V15.0329H216.984C217.372 15.0329 217.698 14.9633 217.963 14.8241C218.228 14.6816 218.429 14.4944 218.565 14.2624C218.704 14.027 218.772 13.7702 218.769 13.4918C218.772 13.0874 218.619 12.746 218.311 12.4676C218.006 12.1859 217.564 12.045 216.984 12.045H214.558V10.3447ZM223.879 6.58124V16.7631H221.732V6.58124H223.879Z" fill="#1D4E89"/>
</g>
<circle cx="180.883" cy="78.4638" r="30.2805" fill="#E6F7FF" stroke="#FF742E" stroke-width="3"/>
<circle cx="100.085" cy="104.678" r="20.5848" fill="#E6F7FF" stroke="#FF742E" stroke-width="3"/>
<circle cx="249.5" cy="101.263" r="19" fill="#E6F7FF" stroke="#FF742E" stroke-width="3"/>
<path d="M96.8599 98.8354C96.8599 97.9326 97.2185 97.0668 97.8569 96.4284C98.4952 95.79 99.3611 95.4314 100.264 95.4314C101.167 95.4314 102.032 95.79 102.671 96.4284C103.309 97.0668 103.668 97.9326 103.668 98.8354C103.668 99.7382 103.309 100.604 102.671 101.242C102.032 101.881 101.167 102.239 100.264 102.239C99.3611 102.239 98.4952 101.881 97.8569 101.242C97.2185 100.604 96.8599 99.7382 96.8599 98.8354ZM92.9322 97.5262C92.0988 97.5262 91.2996 97.8572 90.7104 98.4465C90.1211 99.0357 89.79 99.835 89.79 100.668C89.79 101.502 90.1211 102.301 90.7104 102.89C91.2996 103.479 92.0988 103.81 92.9322 103.81C93.7655 103.81 94.5647 103.479 95.154 102.89C95.7433 102.301 96.0743 101.502 96.0743 100.668C96.0743 99.835 95.7433 99.0357 95.154 98.4465C94.5647 97.8572 93.7655 97.5262 92.9322 97.5262ZM107.596 97.5262C106.762 97.5262 105.963 97.8572 105.374 98.4465C104.784 99.0357 104.453 99.835 104.453 100.668C104.453 101.502 104.784 102.301 105.374 102.89C105.963 103.479 106.762 103.81 107.596 103.81C108.429 103.81 109.228 103.479 109.817 102.89C110.407 102.301 110.738 101.502 110.738 100.668C110.738 99.835 110.407 99.0357 109.817 98.4465C109.228 97.8572 108.429 97.5262 107.596 97.5262ZM97.3836 103.81C96.8974 103.81 96.4312 104.004 96.0875 104.347C95.7437 104.691 95.5506 105.157 95.5506 105.643V109.571C95.5506 110.821 96.0472 112.02 96.9311 112.904C97.815 113.788 99.0138 114.284 100.264 114.284C101.514 114.284 102.713 113.788 103.597 112.904C104.481 112.02 104.977 110.821 104.977 109.571V105.643C104.977 105.157 104.784 104.691 104.44 104.347C104.096 104.004 103.63 103.81 103.144 103.81H97.3836ZM94.6185 104.835C94.5424 105.092 94.504 105.362 94.5033 105.643V109.571C94.5024 110.429 94.6934 111.275 95.0622 112.05C95.4309 112.824 95.9682 113.506 96.6347 114.045C96.0252 114.248 95.3808 114.323 94.7411 114.267C94.1014 114.211 93.4799 114.025 92.9147 113.72C92.3494 113.416 91.8524 112.999 91.4542 112.495C91.0559 111.991 90.7648 111.412 90.5986 110.791L89.8529 108.009C89.7905 107.777 89.7745 107.534 89.8058 107.296C89.8371 107.057 89.9152 106.827 90.0355 106.618C90.1558 106.41 90.316 106.227 90.507 106.08C90.698 105.934 90.916 105.826 91.1485 105.764L94.6185 104.835ZM103.893 114.044C104.559 113.505 105.096 112.823 105.465 112.05C105.834 111.276 106.025 110.429 106.024 109.572V105.644C106.024 105.361 105.985 105.091 105.909 104.834L109.38 105.764C109.85 105.89 110.25 106.197 110.493 106.618C110.736 107.039 110.802 107.539 110.676 108.008L109.93 110.791C109.764 111.412 109.473 111.991 109.074 112.495C108.676 112.999 108.179 113.416 107.613 113.72C107.048 114.025 106.426 114.211 105.787 114.267C105.147 114.322 104.503 114.247 103.893 114.044Z" fill="#1D4E89"/>
<path d="M256.019 100.929L253.831 98.7406V106.132C253.831 107.131 252.622 107.633 251.915 106.926L250.462 105.474C249.901 104.913 248.553 104.576 247.654 105.474C246.755 106.372 247.093 107.718 247.654 108.279L251.698 113.217C252.013 113.603 252.411 113.914 252.862 114.127C253.313 114.341 253.806 114.452 254.304 114.451H257.2C257.497 114.451 257.783 114.333 257.993 114.123C258.204 113.912 258.322 113.627 258.322 113.329V106.484C258.322 105.452 258.118 104.43 257.723 103.477C257.328 102.524 256.749 101.658 256.019 100.929Z" fill="#1D4E89" stroke="#1D4E89" stroke-width="2" stroke-linecap="round" stroke-linejoin="round"/>
<path d="M249.344 92.0074H251.589C252.184 92.0074 252.755 92.2439 253.176 92.6648C253.597 93.0857 253.833 93.6566 253.833 94.2518V96.4962M249.344 92.0074C249.344 93.5033 250.242 96.4962 253.833 96.4962M249.344 92.0074H247.1M253.833 96.4962V103.229M247.1 92.0074H244.856C244.26 92.0074 243.69 92.2439 243.269 92.6648C242.848 93.0857 242.611 93.6566 242.611 94.2518V96.4962M247.1 92.0074C247.1 93.5033 246.202 96.4962 242.611 96.4962M242.611 103.229V105.474C242.611 106.069 242.848 106.64 243.269 107.061C243.69 107.482 244.26 107.718 244.856 107.718H247.1C247.1 106.222 246.202 103.229 242.611 103.229ZM242.611 103.229V96.4962" stroke="#1D4E89" stroke-width="2" stroke-linecap="round" stroke-linejoin="round"/>
<path d="M247.1 99.8628C247.1 100.483 247.603 100.985 248.223 100.985C248.842 100.985 249.345 100.483 249.345 99.8628C249.345 99.243 248.842 98.7406 248.223 98.7406C247.603 98.7406 247.1 99.243 247.1 99.8628Z" stroke="#1D4E89" stroke-width="2" stroke-linecap="round" stroke-linejoin="round"/>
<circle cx="181.78" cy="16.8778" r="15.3778" fill="#E6F7FF" stroke="#FF742E" stroke-width="3"/>
<path d="M181.062 15.0823C181.475 15.0823 181.883 15.001 182.265 14.8431C182.646 14.6852 182.992 14.4537 183.284 14.1619C183.576 13.8702 183.807 13.5238 183.965 13.1426C184.123 12.7613 184.204 12.3528 184.204 11.9401C184.204 11.5275 184.123 11.1189 183.965 10.7377C183.807 10.3564 183.576 10.0101 183.284 9.71829C182.992 9.42651 182.646 9.19506 182.265 9.03716C181.883 8.87925 181.475 8.79797 181.062 8.79797C180.229 8.79797 179.43 9.12902 178.84 9.71829C178.251 10.3076 177.92 11.1068 177.92 11.9401C177.92 12.7735 178.251 13.5727 178.84 14.1619C179.43 14.7512 180.229 15.0823 181.062 15.0823ZM172.982 24.4189V24.9576H189.142V24.4189C189.142 22.4079 189.142 21.4025 188.751 20.634C188.406 19.9583 187.857 19.409 187.181 19.0647C186.413 18.6733 185.407 18.6733 183.396 18.6733H178.728C176.717 18.6733 175.712 18.6733 174.943 19.0647C174.267 19.409 173.718 19.9583 173.374 20.634C172.982 21.4025 172.982 22.4079 172.982 24.4189Z" fill="#1D4E89" stroke="#1D4E89" stroke-width="2" stroke-linecap="round" stroke-linejoin="round"/>
<g filter="url(#filter1_d_40_8)">
<path d="M156.95 84.7631L154.245 75.3085H156.428L157.993 81.8778H158.072L159.798 75.3085H161.668L163.39 81.8916H163.473L165.038 75.3085H167.222L164.516 84.7631H162.568L160.768 78.5816H160.694L158.898 84.7631H156.95ZM168.291 84.7631V75.3085H174.662V76.9566H170.29V79.2094H174.334V80.8575H170.29V83.115H174.681V84.7631H168.291ZM176.251 84.7631V75.3085H178.25V79.2094H182.308V75.3085H184.303V84.7631H182.308V80.8575H178.25V84.7631H176.251ZM185.951 84.7631V75.3085H192.321V76.9566H187.95V79.2094H191.994V80.8575H187.95V83.115H192.34V84.7631H185.951ZM193.911 84.7631V75.3085H195.91V83.115H199.963V84.7631H193.911ZM201.287 84.7631V75.3085H205.017C205.734 75.3085 206.345 75.4455 206.849 75.7194C207.354 75.9902 207.739 76.3672 208.004 76.8504C208.271 77.3305 208.405 77.8845 208.405 78.5124C208.405 79.1402 208.27 79.6942 207.999 80.1743C207.728 80.6544 207.336 81.0283 206.822 81.2961C206.311 81.5638 205.692 81.6977 204.966 81.6977H202.588V80.0958H204.643C205.027 80.0958 205.344 80.0296 205.594 79.8973C205.846 79.7619 206.034 79.5757 206.157 79.3387C206.283 79.0986 206.346 78.8232 206.346 78.5124C206.346 78.1984 206.283 77.9245 206.157 77.6906C206.034 77.4536 205.846 77.2705 205.594 77.1413C205.341 77.0089 205.021 76.9427 204.634 76.9427H203.286V84.7631H201.287Z" fill="#FF742E"/>
</g>
<g filter="url(#filter2_d_40_8)">
<path d="M207.542 147L204.504 142.97H203.821V147H201.822V137.545H203.821V141.322H204.222L207.362 137.545H209.85L206.161 141.931L210.021 147H207.542ZM219.181 142.273C219.181 143.304 218.985 144.181 218.595 144.904C218.207 145.627 217.677 146.18 217.006 146.561C216.339 146.94 215.588 147.129 214.754 147.129C213.913 147.129 213.159 146.938 212.492 146.557C211.824 146.175 211.296 145.623 210.908 144.9C210.52 144.176 210.326 143.301 210.326 142.273C210.326 141.242 210.52 140.365 210.908 139.641C211.296 138.918 211.824 138.367 212.492 137.989C213.159 137.607 213.913 137.416 214.754 137.416C215.588 137.416 216.339 137.607 217.006 137.989C217.677 138.367 218.207 138.918 218.595 139.641C218.985 140.365 219.181 141.242 219.181 142.273ZM217.154 142.273C217.154 141.605 217.054 141.042 216.854 140.583C216.657 140.125 216.379 139.777 216.019 139.54C215.658 139.303 215.237 139.184 214.754 139.184C214.27 139.184 213.849 139.303 213.489 139.54C213.129 139.777 212.849 140.125 212.649 140.583C212.452 141.042 212.353 141.605 212.353 142.273C212.353 142.941 212.452 143.504 212.649 143.962C212.849 144.421 213.129 144.769 213.489 145.006C213.849 145.243 214.27 145.361 214.754 145.361C215.237 145.361 215.658 145.243 216.019 145.006C216.379 144.769 216.657 144.421 216.854 143.962C217.054 143.504 217.154 142.941 217.154 142.273ZM220.662 137.545H223.127L225.73 143.898H225.841L228.445 137.545H230.91V147H228.971V140.846H228.893L226.446 146.954H225.126L222.679 140.823H222.6V147H220.662V137.545ZM240.594 137.545V147H238.619V139.17H234.796V147H232.82V137.545H240.594ZM244.127 147H241.985L245.249 137.545H247.825L251.084 147H248.942L246.574 139.706H246.5L244.127 147ZM243.993 143.284H249.053V144.844H243.993V143.284ZM252.222 147V137.545H254.221V141.446H258.279V137.545H260.273V147H258.279V143.094H254.221V147H252.222ZM261.921 137.545H263.916V143.491H263.994L268.08 137.545H269.829V147H267.83V141.049H267.761L263.653 147H261.921V137.545ZM278.738 147H276.744V139.18H275.396C275.011 139.18 274.691 139.237 274.435 139.35C274.183 139.461 273.994 139.624 273.868 139.84C273.741 140.055 273.678 140.32 273.678 140.634C273.678 140.945 273.741 141.205 273.868 141.414C273.994 141.623 274.183 141.78 274.435 141.885C274.688 141.99 275.005 142.042 275.386 142.042H277.556V143.648H275.063C274.34 143.648 273.721 143.528 273.207 143.288C272.694 143.048 272.301 142.704 272.03 142.254C271.759 141.802 271.624 141.262 271.624 140.634C271.624 140.009 271.756 139.466 272.021 139.004C272.289 138.54 272.675 138.181 273.18 137.929C273.688 137.673 274.299 137.545 275.013 137.545H278.738V147ZM273.637 142.697H275.793L273.494 147H271.287L273.637 142.697ZM284.761 141.493V143.053H280.45V141.493H284.761ZM294.511 137.545V147H292.536V139.17H288.713V147H286.737V137.545H294.511ZM298.044 147H295.902L299.166 137.545H301.742L305.001 147H302.859L300.491 139.706H300.417L298.044 147ZM297.91 143.284H302.97V144.844H297.91V143.284ZM306.139 147V137.545H309.869C310.586 137.545 311.197 137.682 311.702 137.956C312.207 138.227 312.591 138.604 312.856 139.087C313.124 139.567 313.258 140.121 313.258 140.749C313.258 141.377 313.122 141.931 312.851 142.411C312.581 142.891 312.188 143.265 311.674 143.533C311.163 143.801 310.545 143.935 309.818 143.935H307.441V142.333H309.495C309.88 142.333 310.197 142.267 310.446 142.134C310.699 141.999 310.886 141.813 311.009 141.576C311.136 141.336 311.199 141.06 311.199 140.749C311.199 140.435 311.136 140.161 311.009 139.928C310.886 139.691 310.699 139.507 310.446 139.378C310.194 139.246 309.874 139.18 309.486 139.18H308.138V147H306.139ZM314.196 139.194V137.545H321.961V139.194H319.066V147H317.091V139.194H314.196ZM323.24 147V137.545H325.239V141.446H329.297V137.545H331.291V147H329.297V143.094H325.239V147H323.24ZM332.939 147V137.545H339.31V139.194H334.938V141.446H338.982V143.094H334.938V145.352H339.328V147H332.939ZM340.899 147V137.545H344.629C345.346 137.545 345.957 137.682 346.462 137.956C346.966 138.227 347.351 138.604 347.616 139.087C347.884 139.567 348.017 140.121 348.017 140.749C348.017 141.377 347.882 141.931 347.611 142.411C347.34 142.891 346.948 143.265 346.434 143.533C345.923 143.801 345.305 143.935 344.578 143.935H342.201V142.333H344.255C344.64 142.333 344.957 142.267 345.206 142.134C345.458 141.999 345.646 141.813 345.769 141.576C345.895 141.336 345.959 141.06 345.959 140.749C345.959 140.435 345.895 140.161 345.769 139.928C345.646 139.691 345.458 139.507 345.206 139.378C344.954 139.246 344.634 139.18 344.246 139.18H342.898V147H340.899Z" fill="#1D4E89"/>
</g>
<g filter="url(#filter3_d_40_8)">
<path d="M0.821733 148V138.545H4.60724C5.30279 138.545 5.88293 138.649 6.34766 138.855C6.81238 139.061 7.1617 139.347 7.3956 139.713C7.6295 140.077 7.74645 140.495 7.74645 140.969C7.74645 141.338 7.67259 141.663 7.52486 141.943C7.37713 142.22 7.17401 142.448 6.91548 142.626C6.66004 142.802 6.36766 142.926 6.03835 143V143.093C6.39844 143.108 6.73544 143.21 7.04936 143.397C7.36636 143.585 7.62334 143.848 7.82031 144.187C8.01728 144.522 8.11577 144.922 8.11577 145.387C8.11577 145.889 7.99112 146.337 7.74183 146.73C7.49562 147.121 7.13092 147.431 6.64773 147.658C6.16454 147.886 5.56901 148 4.86115 148H0.821733ZM2.82067 146.366H4.45028C5.00734 146.366 5.41359 146.26 5.66903 146.047C5.92448 145.832 6.0522 145.546 6.0522 145.189C6.0522 144.927 5.98911 144.696 5.86293 144.496C5.73674 144.296 5.5567 144.139 5.3228 144.025C5.09197 143.911 4.81652 143.854 4.49645 143.854H2.82067V146.366ZM2.82067 142.502H4.30256C4.57647 142.502 4.8196 142.454 5.03196 142.359C5.2474 142.26 5.41667 142.122 5.53977 141.943C5.66596 141.765 5.72905 141.551 5.72905 141.301C5.72905 140.96 5.60748 140.684 5.36435 140.475C5.12429 140.266 4.78267 140.161 4.33949 140.161H2.82067V142.502ZM11.0461 148H8.90403L12.1679 138.545H14.7439L18.0031 148H15.8611L13.4928 140.706H13.4189L11.0461 148ZM10.9122 144.284H15.9719V145.844H10.9122V144.284ZM19.5196 138.545H21.4724V146.393H24.1869V138.545H26.1304V146.393H28.8126V138.545H30.7561V148H19.5196V138.545ZM32.7758 138.545H34.7702V144.491H34.8486L38.9342 138.545H40.6839V148H38.6849V142.049H38.6157L34.507 148H32.7758V138.545ZM48.7835 148.129C48.0941 148.129 47.4801 148.011 46.9415 147.774C46.406 147.534 45.9828 147.204 45.672 146.786C45.3642 146.364 45.2057 145.878 45.1965 145.327H47.2093C47.2216 145.558 47.297 145.761 47.4355 145.936C47.577 146.109 47.7648 146.243 47.9987 146.338C48.2326 146.433 48.4957 146.481 48.7881 146.481C49.0928 146.481 49.3621 146.427 49.596 146.32C49.8299 146.212 50.013 146.063 50.1453 145.872C50.2777 145.681 50.3438 145.461 50.3438 145.212C50.3438 144.959 50.2731 144.736 50.1315 144.542C49.993 144.345 49.7929 144.191 49.5313 144.081C49.2728 143.97 48.9651 143.914 48.608 143.914H47.7263V142.446H48.608C48.9097 142.446 49.1759 142.394 49.4067 142.289C49.6406 142.185 49.8222 142.04 49.9514 141.855C50.0807 141.668 50.1453 141.449 50.1453 141.2C50.1453 140.963 50.0884 140.755 49.9745 140.577C49.8637 140.395 49.7068 140.254 49.5036 140.152C49.3036 140.05 49.0697 140 48.8019 140C48.5311 140 48.2834 140.049 48.0587 140.147C47.834 140.243 47.654 140.38 47.5186 140.558C47.3831 140.737 47.3108 140.946 47.3016 141.186H45.3857C45.395 140.641 45.5504 140.161 45.852 139.746C46.1536 139.33 46.5599 139.006 47.0708 138.772C47.5847 138.535 48.1649 138.416 48.8112 138.416C49.4636 138.416 50.0345 138.535 50.5239 138.772C51.0132 139.009 51.3933 139.329 51.6642 139.732C51.9381 140.132 52.0735 140.581 52.0704 141.08C52.0735 141.609 51.9088 142.051 51.5764 142.405C51.2471 142.759 50.8178 142.983 50.2884 143.079V143.153C50.984 143.242 51.5133 143.484 51.8765 143.877C52.2428 144.268 52.4243 144.758 52.4213 145.346C52.4243 145.884 52.2689 146.363 51.955 146.781C51.6441 147.2 51.2148 147.529 50.667 147.769C50.1192 148.009 49.4913 148.129 48.7835 148.129ZM53.9135 148V138.545H55.9125V142.446H59.9703V138.545H61.9647V148H59.9703V144.094H55.9125V148H53.9135ZM65.2424 148H63.1003L66.3642 138.545H68.9402L72.1994 148H70.0574L67.6891 140.706H67.6152L65.2424 148ZM65.1085 144.284H70.1681V145.844H65.1085V144.284ZM79.0572 148L76.0195 143.97H75.3363V148H73.3374V138.545H75.3363V142.322H75.7379L78.8771 138.545H81.3654L77.6768 142.931L81.5362 148H79.0572ZM90.6965 143.273C90.6965 144.304 90.501 145.181 90.1102 145.904C89.7224 146.627 89.193 147.18 88.5221 147.561C87.8543 147.94 87.1033 148.129 86.2693 148.129C85.4291 148.129 84.675 147.938 84.0072 147.557C83.3393 147.175 82.8115 146.623 82.4237 145.9C82.036 145.176 81.8421 144.301 81.8421 143.273C81.8421 142.242 82.036 141.365 82.4237 140.641C82.8115 139.918 83.3393 139.367 84.0072 138.989C84.675 138.607 85.4291 138.416 86.2693 138.416C87.1033 138.416 87.8543 138.607 88.5221 138.989C89.193 139.367 89.7224 139.918 90.1102 140.641C90.501 141.365 90.6965 142.242 90.6965 143.273ZM88.6698 143.273C88.6698 142.605 88.5698 142.042 88.3698 141.583C88.1728 141.125 87.8943 140.777 87.5342 140.54C87.1741 140.303 86.7525 140.184 86.2693 140.184C85.7861 140.184 85.3644 140.303 85.0044 140.54C84.6443 140.777 84.3642 141.125 84.1642 141.583C83.9672 142.042 83.8687 142.605 83.8687 143.273C83.8687 143.941 83.9672 144.504 84.1642 144.962C84.3642 145.421 84.6443 145.769 85.0044 146.006C85.3644 146.243 85.7861 146.361 86.2693 146.361C86.7525 146.361 87.1741 146.243 87.5342 146.006C87.8943 145.769 88.1728 145.421 88.3698 144.962C88.5698 144.504 88.6698 143.941 88.6698 143.273ZM92.1772 138.545H94.6424L97.2461 144.898H97.3569L99.9606 138.545H102.426V148H100.487V141.846H100.408L97.9616 147.954H96.6413L94.1946 141.823H94.1161V148H92.1772V138.545ZM105.388 142.04H107.641C108.392 142.04 109.039 142.162 109.58 142.405C110.125 142.645 110.545 142.985 110.84 143.425C111.136 143.865 111.282 144.384 111.279 144.981C111.282 145.575 111.136 146.1 110.84 146.555C110.545 147.007 110.125 147.361 109.58 147.617C109.039 147.872 108.392 148 107.641 148H104.11V138.545H106.104V146.393H107.641C108.001 146.393 108.304 146.329 108.551 146.2C108.797 146.067 108.983 145.893 109.109 145.678C109.239 145.459 109.302 145.221 109.299 144.962C109.302 144.587 109.16 144.27 108.874 144.011C108.591 143.75 108.18 143.619 107.641 143.619H105.388V142.04ZM114.044 138.545V148H112.05V138.545H114.044ZM115.689 148V138.545H122.06V140.194H117.688V142.446H121.732V144.094H117.688V146.352H122.078V148H115.689Z" fill="#1D4E89"/>
</g>
<defs>
<filter id="filter0_d_40_8" x="203.885" y="6.5813" width="19.9951" height="10.1818" filterUnits="userSpaceOnUse" color-interpolation-filters="sRGB">
<feFlood flood-opacity="0" result="BackgroundImageFix"/>
<feColorMatrix in="SourceAlpha" type="matrix" values="0 0 0 0 0 0 0 0 0 0 0 0 0 0 0 0 0 0 127 0" result="hardAlpha"/>
<feOffset/>
<feComposite in2="hardAlpha" operator="out"/>
<feColorMatrix type="matrix" values="0 0 0 0 0 0 0 0 0 0 0 0 0 0 0 0 0 0 0.25 0"/>
<feBlend mode="normal" in2="BackgroundImageFix" result="effect1_dropShadow_40_8"/>
<feBlend mode="normal" in="SourceGraphic" in2="effect1_dropShadow_40_8" result="shape"/>
</filter>
<filter id="filter1_d_40_8" x="154.245" y="75.3085" width="54.1602" height="9.45459" filterUnits="userSpaceOnUse" color-interpolation-filters="sRGB">
<feFlood flood-opacity="0" result="BackgroundImageFix"/>
<feColorMatrix in="SourceAlpha" type="matrix" values="0 0 0 0 0 0 0 0 0 0 0 0 0 0 0 0 0 0 127 0" result="hardAlpha"/>
<feOffset/>
<feComposite in2="hardAlpha" operator="out"/>
<feColorMatrix type="matrix" values="0 0 0 0 0 0 0 0 0 0 0 0 0 0 0 0 0 0 0.25 0"/>
<feBlend mode="normal" in2="BackgroundImageFix" result="effect1_dropShadow_40_8"/>
<feBlend mode="normal" in="SourceGraphic" in2="effect1_dropShadow_40_8" result="shape"/>
</filter>
<filter id="filter2_d_40_8" x="201.821" y="137.416" width="146.196" height="9.71313" filterUnits="userSpaceOnUse" color-interpolation-filters="sRGB">
<feFlood flood-opacity="0" result="BackgroundImageFix"/>
<feColorMatrix in="SourceAlpha" type="matrix" values="0 0 0 0 0 0 0 0 0 0 0 0 0 0 0 0 0 0 127 0" result="hardAlpha"/>
<feOffset/>
<feComposite in2="hardAlpha" operator="out"/>
<feColorMatrix type="matrix" values="0 0 0 0 0 0 0 0 0 0 0 0 0 0 0 0 0 0 0.25 0"/>
<feBlend mode="normal" in2="BackgroundImageFix" result="effect1_dropShadow_40_8"/>
<feBlend mode="normal" in="SourceGraphic" in2="effect1_dropShadow_40_8" result="shape"/>
</filter>
<filter id="filter3_d_40_8" x="0.821289" y="138.416" width="121.257" height="9.71313" filterUnits="userSpaceOnUse" color-interpolation-filters="sRGB">
<feFlood flood-opacity="0" result="BackgroundImageFix"/>
<feColorMatrix in="SourceAlpha" type="matrix" values="0 0 0 0 0 0 0 0 0 0 0 0 0 0 0 0 0 0 127 0" result="hardAlpha"/>
<feOffset/>
<feComposite in2="hardAlpha" operator="out"/>
<feColorMatrix type="matrix" values="0 0 0 0 0 0 0 0 0 0 0 0 0 0 0 0 0 0 0.25 0"/>
<feBlend mode="normal" in2="BackgroundImageFix" result="effect1_dropShadow_40_8"/>
<feBlend mode="normal" in="SourceGraphic" in2="effect1_dropShadow_40_8" result="shape"/>
</filter>
</defs>
</svg>
