<svg width="520" height="353" viewBox="0 0 520 353" fill="none" xmlns="http://www.w3.org/2000/svg">
<line x1="307.563" y1="220.251" x2="462.563" y2="271.251" stroke="#FF742E" stroke-width="10"/>
<line x1="89.2913" y1="283.301" x2="287.291" y2="211.302" stroke="#FF742E" stroke-width="10"/>
<line x1="287" y1="208.989" x2="287.373" y2="35.9893" stroke="#FF742E" stroke-width="10"/>
<circle cx="286.5" cy="218.5" r="83.5" fill="#E6F7FF" stroke="#FF742E" stroke-width="10"/>
<circle cx="61.5" cy="291.5" r="56.5" fill="#E6F7FF" stroke="#FF742E" stroke-width="10"/>
<circle cx="470.5" cy="274.5" r="44.5" fill="#E6F7FF" stroke="#FF742E" stroke-width="10"/>
<path d="M52.5205 275.229C52.5205 272.715 53.5192 270.304 55.2969 268.526C57.0746 266.749 59.4856 265.75 61.9997 265.75C64.5137 265.75 66.9248 266.749 68.7025 268.526C70.4801 270.304 71.4788 272.715 71.4788 275.229C71.4788 277.743 70.4801 280.154 68.7025 281.932C66.9248 283.71 64.5137 284.708 61.9997 284.708C59.4856 284.708 57.0746 283.71 55.2969 281.932C53.5192 280.154 52.5205 277.743 52.5205 275.229ZM41.583 271.583C39.2624 271.583 37.0368 272.505 35.3958 274.146C33.7549 275.787 32.833 278.013 32.833 280.333C32.833 282.654 33.7549 284.88 35.3958 286.521C37.0368 288.161 39.2624 289.083 41.583 289.083C43.9037 289.083 46.1292 288.161 47.7702 286.521C49.4111 284.88 50.333 282.654 50.333 280.333C50.333 278.013 49.4111 275.787 47.7702 274.146C46.1292 272.505 43.9037 271.583 41.583 271.583ZM82.4163 271.583C80.0957 271.583 77.8701 272.505 76.2292 274.146C74.5882 275.787 73.6663 278.013 73.6663 280.333C73.6663 282.654 74.5882 284.88 76.2292 286.521C77.8701 288.161 80.0957 289.083 82.4163 289.083C84.737 289.083 86.9626 288.161 88.6035 286.521C90.2445 284.88 91.1663 282.654 91.1663 280.333C91.1663 278.013 90.2445 275.787 88.6035 274.146C86.9626 272.505 84.737 271.583 82.4163 271.583ZM53.9788 289.083C52.6251 289.083 51.3269 289.621 50.3696 290.578C49.4124 291.536 48.8747 292.834 48.8747 294.187V305.125C48.8747 308.606 50.2575 311.944 52.7189 314.406C55.1803 316.867 58.5187 318.25 61.9997 318.25C65.4806 318.25 68.819 316.867 71.2805 314.406C73.7419 311.944 75.1247 308.606 75.1247 305.125V294.187C75.1247 292.834 74.5869 291.536 73.6297 290.578C72.6725 289.621 71.3742 289.083 70.0205 289.083H53.9788ZM46.2788 291.936C46.0669 292.653 45.96 293.404 45.958 294.187V305.125C45.9556 307.513 46.4874 309.871 47.5144 312.027C48.5414 314.183 50.0376 316.082 51.8934 317.585C50.1961 318.148 48.4017 318.358 46.6203 318.202C44.839 318.046 43.1082 317.528 41.5342 316.68C39.9602 315.831 38.5762 314.67 37.4671 313.267C36.3581 311.865 35.5473 310.25 35.0847 308.523L33.008 300.776C32.8342 300.129 32.7897 299.453 32.8769 298.789C32.9642 298.124 33.1815 297.483 33.5166 296.902C33.8516 296.321 34.2978 295.812 34.8296 295.404C35.3614 294.996 35.9684 294.697 36.6159 294.523L46.2788 291.936ZM72.1059 317.582C73.961 316.08 75.4567 314.182 76.4837 312.027C77.5107 309.872 78.0429 307.515 78.0413 305.128V294.19C78.0394 293.401 77.9325 292.648 77.7205 291.933L87.3863 294.523C88.6935 294.874 89.8079 295.729 90.4845 296.901C91.161 298.073 91.3444 299.466 90.9943 300.773L88.9176 308.523C88.4546 310.25 87.6436 311.865 86.5342 313.267C85.4248 314.67 84.0405 315.831 82.4662 316.679C80.8919 317.528 79.1608 318.045 77.3793 318.201C75.5977 318.356 73.8032 318.145 72.1059 317.582Z" fill="#1D4E89"/>
<path d="M485.962 269.094L479.869 263V283.584C479.869 286.366 476.503 287.762 474.534 285.794L470.487 281.75C468.925 280.188 465.172 279.25 462.669 281.75C460.165 284.25 461.106 288 462.669 289.562L473.928 303.312C474.808 304.388 475.915 305.254 477.171 305.848C478.426 306.443 479.798 306.751 481.187 306.75H489.25C490.079 306.75 490.873 306.421 491.459 305.835C492.046 305.249 492.375 304.454 492.375 303.625V284.562C492.374 281.689 491.808 278.844 490.707 276.19C489.607 273.536 487.995 271.125 485.962 269.094Z" fill="#1D4E89" stroke="#1D4E89" stroke-width="2" stroke-linecap="round" stroke-linejoin="round"/>
<path d="M467.375 244.25H473.625C475.283 244.25 476.872 244.908 478.044 246.081C479.217 247.253 479.875 248.842 479.875 250.5V256.75M467.375 244.25C467.375 248.416 469.875 256.75 479.875 256.75M467.375 244.25H461.125M479.875 256.75V275.5M461.125 244.25H454.875C453.217 244.25 451.628 244.908 450.456 246.081C449.283 247.253 448.625 248.842 448.625 250.5V256.75M461.125 244.25C461.125 248.416 458.625 256.75 448.625 256.75M448.625 275.5V281.75C448.625 283.408 449.283 284.997 450.456 286.169C451.628 287.342 453.217 288 454.875 288H461.125C461.125 283.834 458.625 275.5 448.625 275.5ZM448.625 275.5V256.75" stroke="#1D4E89" stroke-width="2" stroke-linecap="round" stroke-linejoin="round"/>
<path d="M461.125 266.125C461.125 267.851 462.524 269.25 464.25 269.25C465.976 269.25 467.375 267.851 467.375 266.125C467.375 264.399 465.976 263 464.25 263C462.524 263 461.125 264.399 461.125 266.125Z" stroke="#1D4E89" stroke-width="2" stroke-linecap="round" stroke-linejoin="round"/>
<circle cx="289" cy="47" r="42" fill="#E6F7FF" stroke="#FF742E" stroke-width="10"/>
<path d="M287 42C288.149 42 289.287 41.7737 290.348 41.3339C291.41 40.8942 292.375 40.2497 293.187 39.4372C294 38.6247 294.644 37.6601 295.084 36.5985C295.524 35.5369 295.75 34.3991 295.75 33.25C295.75 32.1009 295.524 30.9631 295.084 29.9015C294.644 28.8399 294 27.8753 293.187 27.0628C292.375 26.2503 291.41 25.6058 290.348 25.1661C289.287 24.7263 288.149 24.5 287 24.5C284.679 24.5 282.454 25.4219 280.813 27.0628C279.172 28.7038 278.25 30.9294 278.25 33.25C278.25 35.5706 279.172 37.7962 280.813 39.4372C282.454 41.0781 284.679 42 287 42ZM264.5 68V69.5H309.5V68C309.5 62.4 309.5 59.6 308.41 57.46C307.451 55.5785 305.922 54.0487 304.04 53.09C301.9 52 299.1 52 293.5 52H280.5C274.9 52 272.1 52 269.96 53.09C268.078 54.0487 266.549 55.5785 265.59 57.46C264.5 59.6 264.5 62.4 264.5 68Z" fill="#1D4E89" stroke="#1D4E89" stroke-width="2" stroke-linecap="round" stroke-linejoin="round"/>
<g filter="url(#filter0_d_0_439)">
<path d="M228.261 231L221.602 207.727H226.977L230.83 223.898H231.023L235.273 207.727H239.875L244.114 223.932H244.318L248.17 207.727H253.545L246.886 231H242.091L237.659 215.784H237.477L233.057 231H228.261ZM256.179 231V207.727H271.861V211.784H261.099V217.33H271.054V221.386H261.099V226.943H271.906V231H256.179ZM275.773 231V207.727H280.693V217.33H290.682V207.727H295.591V231H290.682V221.386H280.693V231H275.773ZM299.648 231V207.727H315.33V211.784H304.568V217.33H314.523V221.386H304.568V226.943H315.375V231H299.648ZM319.241 231V207.727H324.162V226.943H334.139V231H319.241ZM337.398 231V207.727H346.58C348.345 207.727 349.848 208.064 351.091 208.739C352.333 209.405 353.28 210.333 353.932 211.523C354.591 212.705 354.92 214.068 354.92 215.614C354.92 217.159 354.587 218.523 353.92 219.705C353.254 220.886 352.288 221.807 351.023 222.466C349.765 223.125 348.242 223.455 346.455 223.455H340.602V219.511H345.659C346.606 219.511 347.386 219.348 348 219.023C348.621 218.689 349.083 218.231 349.386 217.648C349.697 217.057 349.852 216.379 349.852 215.614C349.852 214.841 349.697 214.167 349.386 213.591C349.083 213.008 348.621 212.557 348 212.239C347.379 211.913 346.591 211.75 345.636 211.75H342.318V231H337.398Z" fill="#FF742E"/>
</g>
<defs>
<filter id="filter0_d_0_439" x="221.603" y="207.727" width="133.318" height="23.2727" filterUnits="userSpaceOnUse" color-interpolation-filters="sRGB">
<feFlood flood-opacity="0" result="BackgroundImageFix"/>
<feColorMatrix in="SourceAlpha" type="matrix" values="0 0 0 0 0 0 0 0 0 0 0 0 0 0 0 0 0 0 127 0" result="hardAlpha"/>
<feOffset/>
<feComposite in2="hardAlpha" operator="out"/>
<feColorMatrix type="matrix" values="0 0 0 0 0 0 0 0 0 0 0 0 0 0 0 0 0 0 0.25 0"/>
<feBlend mode="normal" in2="BackgroundImageFix" result="effect1_dropShadow_0_439"/>
<feBlend mode="normal" in="SourceGraphic" in2="effect1_dropShadow_0_439" result="shape"/>
</filter>
</defs>
</svg>
